<?xml version="1.0" encoding="UTF-8"?>
<svg width="183px" height="71px" viewBox="0 0 183 71" version="1.1" xmlns="http://www.w3.org/2000/svg" xmlns:xlink="http://www.w3.org/1999/xlink">
    <!-- Generator: Sketch 47.1 (45422) - http://www.bohemiancoding.com/sketch -->
    <title>kubernetes-logo</title>
    <desc>Created with Sketch.</desc>
    <defs></defs>
    <g id="Habitat-SaaS-Home-&amp;-Pricing/desktop" stroke="none" stroke-width="1" fill="none" fill-rule="evenodd">
        <g id="kubernetes-logo" transform="translate(0.000000, 16.984375)" fill-rule="nonzero">
            <path d="M65.7134851,28.0339404 L66.7417705,26.9088752 L67.7700559,25.6991277 L68.7136589,24.6103549 L69.4757999,23.7151418 L73.4800642,23.7151418 C72.6735658,24.6345499 71.8952949,25.5096006 71.1452514,26.3402939 C70.395208,27.1709872 69.5645147,28.0299079 68.6531716,28.9170561 C69.1464646,29.3980069 69.6071876,29.9112685 70.0322837,30.4534354 C70.5161827,31.0179843 70.9799193,31.5986631 71.4234934,32.1954719 C71.8670675,32.7922806 72.2703166,33.3971544 72.6332409,34.0100931 C73.0122951,34.6149669 73.3268295,35.1674183 73.576844,35.6674472 L69.7056519,35.6674472 C69.4717674,35.272263 69.1975579,34.8367539 68.8830236,34.3609199 C68.5684892,33.8850859 68.2458899,33.4173168 67.9152256,32.9576128 C67.5684313,32.4898437 67.205507,32.0341722 66.8264528,31.5905981 C66.4802738,31.1874438 66.0997951,30.8150604 65.6892901,30.4776304 L65.6892901,35.6795447 L62.350387,35.6795447 L62.350387,18.6704946 L65.7134851,18.1261082 L65.7134851,28.0339404 Z" id="Shape" fill="#FFFFFF"></path>
            <path d="M85.3476873,35.2924255 C84.6196878,35.4901678 83.8803911,35.6436829 83.1338493,35.7521296 C82.1933918,35.8991662 81.2428228,35.9719757 80.2909427,35.9698841 C79.4336916,35.9935691 78.5797585,35.8539839 77.7746678,35.55857 C77.1619442,35.3086152 76.6243271,34.9043605 76.2140935,34.3851149 C75.8113693,33.8727375 75.5263828,33.2779831 75.3793678,32.6430784 C75.2094736,31.9094333 75.1282429,31.1580495 75.1374183,30.4050455 L75.1374183,23.7756291 L78.5005163,23.7756291 L78.5005163,29.9816339 C78.4436536,30.78701 78.589211,31.5938139 78.923928,32.3285441 C79.2836413,32.8507507 79.9033455,33.1303165 80.5328922,33.0543926 L81.2950331,33.0543926 L82.0208816,32.9697103 L82.0208816,23.7756291 L85.3839797,23.7756291 L85.3476873,35.2924255 Z" id="Shape" fill="#FFFFFF"></path>
            <path d="M99.5501231,29.7154894 C99.560491,30.5925417 99.4171894,31.4646342 99.1267115,32.2922517 C98.8693934,33.0286279 98.45683,33.7011061 97.916964,34.2641401 C97.3670727,34.8029131 96.7066219,35.2156949 95.981368,35.4738876 C95.1406317,35.7795886 94.2506275,35.927239 93.3562159,35.9093967 C92.9529667,35.9093967 92.529555,35.9093967 92.085981,35.9093967 C91.6424069,35.9093967 91.1907678,35.8569743 90.7310637,35.7521296 C90.3036196,35.6956747 89.9003704,35.6230898 89.5213162,35.534375 C89.142262,35.4456602 88.8035327,35.3650103 88.5051283,35.2924255 L88.5051283,18.6704946 L91.8682264,18.1261082 L91.8682264,24.0538711 C92.2574402,23.8845014 92.6627391,23.7548057 93.0779739,23.6667519 C93.4994569,23.5768387 93.9293421,23.5322279 94.3603063,23.5336796 C95.1289195,23.5166402 95.892202,23.6651709 96.5983392,23.9691887 C97.2300611,24.2387864 97.7895125,24.6531949 98.2314983,25.1789363 C98.6831157,25.7736326 99.0120829,26.4521275 99.1992964,27.1750197 C99.4382218,28.0004759 99.5563895,28.8561734 99.5501231,29.7154894 Z M96.1144402,29.6308071 C96.1144402,27.4613266 95.3079418,26.3765863 93.6949452,26.3765863 C93.3478383,26.3757769 93.0021258,26.4205162 92.6666598,26.5096585 C92.3761015,26.5837811 92.0986557,26.7021035 91.8440315,26.8604853 L91.8440315,32.9697103 L92.4731002,33.0543926 C92.7311796,33.0543926 93.0094216,33.0543926 93.307826,33.0543926 C94.119758,33.1119235 94.9062045,32.7573407 95.4006892,32.1107895 C95.9044833,31.3798369 96.1590383,30.5058647 96.1265377,29.6187096 L96.1144402,29.6308071 Z" id="Shape" fill="#FFFFFF"></path>
            <path d="M101.618791,29.8001718 C101.597947,28.8540153 101.762331,27.912914 102.10269,27.02985 C102.390532,26.2945075 102.822397,25.6240886 103.372925,25.0579615 C103.887596,24.53352 104.505496,24.1215864 105.187547,23.848214 C105.860615,23.5775915 106.579169,23.4379866 107.304605,23.4368998 C108.798578,23.36862 110.250769,23.9406951 111.296772,25.0095716 C112.355946,26.2786832 112.88078,27.9095734 112.760566,29.5582223 C112.760566,29.7517819 112.760566,29.9655039 112.760566,30.1993885 C112.760566,30.433273 112.760566,30.63893 112.760566,30.8163597 L105.042377,30.8163597 C105.103206,31.4817508 105.458154,32.0851618 106.010175,32.4616163 C106.694953,32.8970198 107.498301,33.108427 108.308695,33.0664901 C108.906176,33.057009 109.501494,32.9922124 110.087024,32.8729305 C110.585072,32.7858241 111.071939,32.6438211 111.538721,32.4495188 L112.046815,35.2924255 C111.812659,35.4011023 111.569874,35.4901237 111.320966,35.55857 C110.990906,35.6573742 110.655714,35.7381434 110.316876,35.8005195 C109.945887,35.8650393 109.542638,35.9214942 109.107129,35.9698841 C108.70517,36.0106045 108.301396,36.0307932 107.897381,36.0303715 C106.944336,36.0524154 105.995847,35.8922809 105.102864,35.55857 C104.358686,35.2767436 103.685519,34.8348489 103.130976,34.2641401 C102.58505,33.7105002 102.171474,33.0405077 101.921228,32.3043491 C101.684208,31.4917674 101.58204,30.6458177 101.618791,29.8001718 L101.618791,29.8001718 Z M109.53054,28.5178394 C109.516288,28.2347279 109.467538,27.9544139 109.38537,27.6831136 C109.30562,27.4179365 109.174039,27.1712219 108.998251,26.9572651 C108.818606,26.7407696 108.596213,26.5636789 108.344988,26.4370737 C108.039198,26.2920454 107.703387,26.2215664 107.365092,26.2314166 C107.032179,26.2239206 106.701716,26.2900132 106.397294,26.4249762 C106.137926,26.5442617 105.906973,26.717477 105.719835,26.9330702 C105.533536,27.1502287 105.389886,27.4005904 105.296424,27.6710161 C105.198433,27.946141 105.125551,28.2295721 105.078669,28.5178394 L109.53054,28.5178394 L109.53054,28.5178394 Z" id="Shape" fill="#FFFFFF"></path>
            <path d="M122.499034,26.751608 L121.458651,26.5096585 C121.028259,26.4259103 120.590575,26.385384 120.152123,26.3886838 C119.898324,26.3728218 119.643782,26.3728218 119.389982,26.3886838 C119.165456,26.4121267 118.94303,26.4525676 118.724621,26.5096585 L118.724621,35.5706674 L115.361523,35.5706674 L115.361523,24.4046978 C116.055962,24.1689411 116.762688,23.9710579 117.478581,23.8119216 C118.380622,23.6164613 119.301794,23.5231268 120.224708,23.5336796 L120.877972,23.5336796 L121.640113,23.618362 L122.402254,23.7514342 C122.625596,23.795326 122.844314,23.8601314 123.055517,23.9449938 L122.499034,26.751608 Z" id="Shape" fill="#FFFFFF"></path>
            <path d="M124.870139,24.1748458 C125.598207,23.9773892 126.337486,23.8238777 127.083977,23.7151418 C128.024469,23.5684022 128.975014,23.4955945 129.926883,23.4973872 C130.787149,23.4723495 131.644555,23.6077294 132.455256,23.8966039 C133.075433,24.1221062 133.62591,24.5057718 134.052122,25.0095716 C134.453701,25.5135848 134.738759,26.1002256 134.886848,26.7274131 C135.057379,27.4527479 135.138631,28.1962043 135.128798,28.941251 L135.128798,35.6553498 L131.753602,35.6553498 L131.753602,29.3525652 C131.815638,28.5625614 131.669656,27.770088 131.33019,27.0540449 C130.952304,26.5584273 130.339815,26.3005372 129.721226,26.3765863 L128.959085,26.3765863 L128.233237,26.4612686 L128.233237,35.6553498 L124.870139,35.6553498 L124.870139,24.1748458 L124.870139,24.1748458 Z" id="Shape" fill="#FFFFFF"></path>
            <path d="M137.60878,29.8001718 C137.587935,28.8540153 137.75232,27.912914 138.092679,27.02985 C138.380521,26.2945075 138.812386,25.6240886 139.362914,25.0579615 C139.874051,24.5349034 140.48771,24.1230514 141.165438,23.848214 C141.838506,23.5775915 142.557061,23.4379866 143.282496,23.4368998 C144.776934,23.3588103 146.233679,23.9221438 147.28676,24.9853767 C148.37238,26.2563615 148.915422,27.9028648 148.798945,29.5703197 C148.798945,29.7638793 148.798945,29.9776014 148.798945,30.2114859 L148.798945,30.8284572 L141.05656,30.8284572 C141.11739,31.4938483 141.472337,32.0972592 142.024358,32.4737138 C142.709137,32.9091173 143.512484,33.1205245 144.322879,33.0785875 C144.931733,33.0793385 145.5393,33.0226323 146.1375,32.9092229 C146.635525,32.8220199 147.122382,32.68002 147.589197,32.4858113 L148.036804,35.2198406 C147.802626,35.328466 147.559845,35.4174858 147.310955,35.4859851 C146.980901,35.5848124 146.645708,35.665582 146.306865,35.7279346 C145.935875,35.7924545 145.532626,35.8489094 145.097117,35.8972993 C144.695159,35.9380197 144.291385,35.9582083 143.88737,35.9577866 C142.934325,35.9798306 141.985835,35.8196961 141.092853,35.4859851 C140.349785,35.2076978 139.67671,34.7699922 139.120964,34.2036527 C138.595314,33.6405134 138.202598,32.9666946 137.971704,32.2317643 C137.721992,31.4457367 137.599473,30.624859 137.60878,29.8001718 L137.60878,29.8001718 Z M145.520529,28.5178394 C145.506276,28.2347279 145.457526,27.9544139 145.375359,27.6831136 C145.295609,27.4179365 145.164028,27.1712219 144.98824,26.9572651 C144.808594,26.7407696 144.586201,26.5636789 144.334976,26.4370737 C144.029187,26.2920454 143.693375,26.2215664 143.355081,26.2314166 C143.022167,26.2239206 142.691704,26.2900132 142.387283,26.4249762 C142.127915,26.5442617 141.896961,26.717477 141.709824,26.9330702 C141.523525,27.1502287 141.379875,27.4005904 141.286412,27.6710161 C141.188422,27.946141 141.115539,28.2295721 141.068658,28.5178394 L145.520529,28.5178394 L145.520529,28.5178394 Z" id="Shape" fill="#FFFFFF"></path>
            <path d="M151.21844,20.7754553 L154.581538,20.2310689 L154.581538,23.7151418 L158.622094,23.7151418 L158.622094,26.5096585 L154.581538,26.5096585 L154.581538,30.6953849 C154.554571,31.2831643 154.683978,31.8675805 154.956559,32.3890315 C155.304314,32.8567697 155.879285,33.0978863 156.456646,33.0181002 C156.829739,33.0181611 157.202131,32.9857792 157.569614,32.9213204 C157.924354,32.8613466 158.272678,32.7681902 158.609997,32.6430784 L159.081798,35.2682305 C158.64131,35.4428452 158.188416,35.5843747 157.726881,35.6916422 C157.127079,35.8228041 156.514047,35.8837013 155.900162,35.8731043 C155.125024,35.8950371 154.352898,35.7677186 153.625837,35.4980826 C153.062829,35.2776286 152.563821,34.9200058 152.17414,34.4576997 C151.798162,33.9881104 151.53717,33.437128 151.411999,32.8487355 C151.26231,32.1613028 151.18928,31.4593962 151.194245,30.7558723 L151.194245,20.7754553 L151.21844,20.7754553 Z" id="Shape" fill="#FFFFFF"></path>
            <path d="M160.448813,29.8001718 C160.427968,28.8540153 160.592353,27.912914 160.932712,27.02985 C161.220554,26.2945075 161.652419,25.6240886 162.202947,25.0579615 C162.717618,24.53352 163.335518,24.1215864 164.017568,23.848214 C164.690637,23.5775915 165.409191,23.4379866 166.134626,23.4368998 C167.629065,23.3588103 169.08581,23.9221438 170.138891,24.9853767 C171.196192,26.2507766 171.720985,27.8772027 171.602685,29.5219298 C171.602685,29.7154894 171.602685,29.9292115 171.602685,30.163096 L171.602685,30.7800673 L163.969178,30.7800673 C164.032844,31.4475898 164.392462,32.0513942 164.949074,32.4253239 C165.633852,32.8607274 166.4372,33.0721346 167.247594,33.0301976 C167.856449,33.0309486 168.464016,32.9742424 169.062215,32.860833 C169.560241,32.77363 170.047097,32.6316301 170.513912,32.4374214 L170.961519,35.1714507 C170.727342,35.2800761 170.484561,35.3690959 170.235671,35.4375952 C169.905617,35.5364225 169.570423,35.6171921 169.23158,35.6795447 C168.860591,35.7440646 168.457342,35.8005195 168.021833,35.8489094 C167.619874,35.8896298 167.2161,35.9098184 166.812085,35.9093967 C165.85904,35.9314407 164.910551,35.7713062 164.017568,35.4375952 C163.27339,35.1557688 162.600224,34.7138741 162.04568,34.1431654 C161.499754,33.5895255 161.086178,32.919533 160.835932,32.1833744 C160.583059,31.4141056 160.452431,30.6099288 160.448813,29.8001718 L160.448813,29.8001718 Z M168.360562,28.5178394 C168.34631,28.2347279 168.297559,27.9544139 168.215392,27.6831136 C168.135642,27.4179365 168.004061,27.1712219 167.828273,26.9572651 C167.648627,26.7407696 167.426234,26.5636789 167.175009,26.4370737 C166.86922,26.2920454 166.533408,26.2215664 166.195114,26.2314166 C165.8622,26.2239206 165.531737,26.2900132 165.227316,26.4249762 C164.963599,26.5427813 164.728398,26.7160875 164.53776,26.9330702 C164.35146,27.1502287 164.20781,27.4005904 164.114348,27.6710161 C164.016357,27.946141 163.943475,28.2295721 163.896594,28.5178394 L168.360562,28.5178394 Z" id="Shape" fill="#FFFFFF"></path>
            <path d="M177.61513,33.2358547 C178.058361,33.262527 178.502472,33.2008448 178.921658,33.0543926 C179.184702,32.924446 179.339124,32.6445567 179.308777,32.352739 C179.280722,32.0470202 179.091627,31.7795206 178.81278,31.6510855 C178.330348,31.3731584 177.824323,31.1383625 177.300596,30.9494319 C176.810795,30.7723198 176.330309,30.570435 175.860996,30.3445582 C175.460009,30.1497601 175.092506,29.8925083 174.772224,29.5824172 C174.468993,29.2878062 174.230088,28.9335676 174.07057,28.5420344 C173.896594,28.0741873 173.814445,27.5771865 173.828621,27.0782399 C173.78423,26.0557506 174.234421,25.0743341 175.038368,24.4409903 C176.034011,23.7432386 177.236133,23.4022112 178.449856,23.4731923 C179.152067,23.4705194 179.85291,23.5353372 180.542719,23.6667519 C181.082006,23.762786 181.612167,23.9044319 182.127489,24.0901635 L181.54681,26.7153156 C181.129916,26.5759412 180.705906,26.4588336 180.276575,26.3644888 C179.767925,26.2543034 179.248515,26.2015509 178.728098,26.2072216 C177.671585,26.2072216 177.143329,26.5015935 177.143329,27.0903373 C177.140126,27.2101266 177.160684,27.3293637 177.203816,27.4411641 C177.264289,27.5636954 177.356112,27.6680402 177.469961,27.743601 C177.646289,27.8638946 177.832442,27.9691119 178.026445,28.0581353 C178.260329,28.1710451 178.558733,28.2960524 178.921658,28.4331571 C179.549332,28.6588811 180.159836,28.9297666 180.748376,29.2436879 C181.171785,29.4659855 181.555924,29.7561333 181.885539,30.1026087 C182.15366,30.3975615 182.352104,30.7489729 182.466218,31.130894 C182.585778,31.5558764 182.642831,31.9960009 182.635583,32.4374214 C182.694371,33.4946697 182.193727,34.505144 181.316958,35.0988659 C180.18825,35.7647826 178.887231,36.0805639 177.578838,36.0061765 C176.692139,36.0266713 175.806314,35.9372761 174.941588,35.7400321 C174.447637,35.62563 173.9625,35.4760462 173.489891,35.2924255 L174.058473,32.5583961 C174.631288,32.7849272 175.222105,32.9629818 175.824704,33.090685 C176.414763,33.2017861 177.01488,33.2504442 177.61513,33.2358547 Z" id="Shape" fill="#FFFFFF"></path>
            <g id="layer1">
                <path d="M27.3160989,1.62515211 C26.8544464,1.64866679 26.4020881,1.76381252 25.9853767,1.96388142 L7.87545633,10.6135762 C6.94483347,11.0755971 6.27327904,11.9339415 6.04873758,12.9483889 L1.53637935,32.3890315 C1.32744265,33.2956714 1.49786952,34.2483139 2.00818088,35.026281 L2.20174048,35.304523 L14.7347248,50.8739735 C15.382915,51.7166837 16.3814769,52.2159646 17.4445592,52.2288907 L37.502173,52.2288907 C38.5549887,52.2305864 39.5517055,51.7544761 40.2120075,50.9344609 L52.7933816,35.2924255 C53.4482737,34.4776767 53.6934869,33.4076553 53.4587428,32.3890315 L48.9826769,12.9483889 C48.7475384,11.9243389 48.0567382,11.0641812 47.1075683,10.6135762 L29.0339404,1.96388142 C28.4994962,1.70658329 27.908211,1.58999184 27.3160989,1.62515211 Z" id="path3055" fill="#326CE5"></path>
                <path d="M27.3040014,0.209747517 C26.8207026,0.23673517 26.3476855,0.360130944 25.9127918,0.572671772 L6.78668357,9.70626552 C5.79920775,10.1878588 5.08304335,11.0908487 4.83899007,12.162053 L0.120974752,32.7277608 C-0.0964573331,33.6841528 0.0824590872,34.6878303 0.616971233,35.51018 L0.822628311,35.8005195 L14.0330712,52.2288907 C14.7383357,53.1064044 15.8109017,53.6069352 16.9364652,53.5838079 L38.1191442,53.5838079 C39.2278115,53.5919652 40.2793948,53.0929087 40.9741484,52.2288907 L54.1966887,35.7521296 C54.8863395,34.8881895 55.1446357,33.7570304 54.8983423,32.6793709 L50.180327,12.1136631 C49.9184668,11.0488594 49.1892211,10.1595354 48.1963411,9.69416805 L29.0339404,0.572671772 C28.4960167,0.310973919 27.9017455,0.186301623 27.3040014,0.209747517 Z M27.3040014,1.61305464 C27.9012023,1.57956174 28.4969688,1.70038152 29.0339404,1.96388142 L47.1801531,10.6135762 C48.1293231,11.0641812 48.8201233,11.9243389 49.0552618,12.9483889 L53.5313276,32.3890315 C53.7660718,33.4076553 53.5208585,34.4776767 52.8659665,35.2924255 L40.2603974,50.8739735 C39.58953,51.7073683 38.5719097,52.1849357 37.502173,52.1684034 L17.4445592,52.1684034 C16.3917435,52.170099 15.3950267,51.6939887 14.7347248,50.8739735 L2.20174048,35.2924255 L2.00818088,35.0141836 C1.49786952,34.2362164 1.32744265,33.2835739 1.53637935,32.376934 L6.04873758,12.9483889 C6.27327904,11.9339415 6.94483347,11.0755971 7.87545633,10.6135762 L26.0216691,1.96388142 C26.4272089,1.76840228 26.8667902,1.65337166 27.3160989,1.62515211 L27.3040014,1.61305464 Z" id="path3054-2-9" fill="#FFFFFF"></path>
                <path d="M27.4975611,8.24247103 C26.87708,8.30482381 26.4056632,8.82862023 26.4087883,9.45221854 L26.4087883,9.45221854 C26.4087883,9.53690087 26.4087883,9.64577815 26.4087883,9.73046047 C26.4374539,10.0757186 26.4859235,10.4190457 26.553958,10.7587459 C26.6584621,11.4105274 26.6989798,12.0709662 26.6749327,12.7306343 C26.6116381,12.9449739 26.4902058,13.1375906 26.324106,13.2871182 L26.324106,13.7468222 C25.6645563,13.8015345 25.0096748,13.9025965 24.364315,14.0492591 C21.6499082,14.6627166 19.1810501,16.0740946 17.2751945,18.1019133 L16.8880753,17.8236714 C16.6745971,17.8874281 16.4446976,17.8657395 16.2469091,17.763184 C15.717275,17.3722688 15.2270235,16.9306373 14.7831147,16.4445592 C14.5600859,16.1769678 14.3217712,15.9224961 14.0693636,15.6824183 L13.8274141,15.4888587 C13.6145713,15.3148919 13.3518718,15.2132018 13.0773707,15.1985192 C12.7456932,15.1831047 12.4265793,15.3269307 12.2184499,15.5856385 C11.9016213,16.0939915 12.0045156,16.75766 12.4603994,17.1462127 L12.4603994,17.1462127 L12.6902514,17.3276749 C12.9784691,17.5180382 13.2773639,17.6917203 13.5854646,17.8478663 C14.157477,18.173716 14.6963488,18.5545728 15.1944288,18.985029 C15.3244139,19.1702288 15.3998552,19.3881705 15.4121834,19.6140977 L15.7630101,19.928632 C13.8470452,22.8033097 13.0587859,26.2837115 13.5491722,29.703392 L13.0894681,29.8364642 C12.9730828,30.0258492 12.8160627,30.1870014 12.6297641,30.3082657 C11.9923194,30.4762613 11.3399925,30.581606 10.6820706,30.6228001 C10.3339386,30.631039 9.98656957,30.6593132 9.64168771,30.7074824 L9.3513483,30.7800673 L9.3513483,30.7800673 C8.94788121,30.8415207 8.61266393,31.1234525 8.48296362,31.5104151 C8.35326331,31.8973777 8.45086366,32.3243792 8.73579858,32.6165681 C9.02073351,32.9087569 9.44514704,33.0170588 9.83524731,32.8971254 L9.83524731,32.8971254 L10.1376842,32.8729305 C10.4671841,32.7665176 10.7903134,32.641305 11.1054822,32.4979087 C11.7150198,32.251663 12.3470645,32.0652909 12.9926883,31.9414249 C13.2186155,31.953753 13.4365572,32.0291944 13.621757,32.1591794 L14.0935586,32.0744971 C15.1554957,35.3519764 17.3802093,38.1274894 20.3479532,39.8773686 L20.1543936,40.3491701 C20.2468997,40.5407491 20.2805766,40.7554393 20.2511734,40.9661413 C19.9815213,41.584741 19.6533995,42.1761705 19.2712779,42.7323727 C19.0611383,43.0113102 18.8672569,43.3021322 18.6905991,43.6033909 L18.5575269,43.8937303 C18.3507425,44.2486854 18.3613453,44.6898092 18.5849445,45.0344196 C18.8085437,45.3790299 19.2070683,45.5684521 19.6154777,45.5242409 C20.0238871,45.4800297 20.372644,45.2097126 20.5173179,44.8252359 L20.5173179,44.8252359 L20.6503901,44.546994 C20.7741777,44.2226373 20.8791961,43.8914254 20.9649245,43.555001 C21.1441172,42.8753654 21.4169039,42.2239342 21.7754553,41.619405 C21.9024305,41.47678 22.0722146,41.3791541 22.2593543,41.3411631 L22.5013038,40.8935565 C25.7229181,42.1226949 29.2843015,42.1226949 32.5059158,40.8935565 L32.7357678,41.3048707 C32.9585463,41.3403238 33.158435,41.4619952 33.2922517,41.6436 C33.5970973,42.2270389 33.8442517,42.8388474 34.0301976,43.4703187 C34.1159772,43.8067284 34.2209947,44.1379374 34.344732,44.4623117 L34.4778042,44.7405536 C34.6224781,45.1250303 34.971235,45.3953474 35.3796444,45.4395586 C35.7880538,45.4837698 36.1865785,45.2943476 36.4101776,44.9497373 C36.6337768,44.6051269 36.6443796,44.1640031 36.4375952,43.809048 L36.2924255,43.6033909 C36.1154629,43.3062073 35.9215843,43.0194285 35.7117467,42.7444702 C35.3382183,42.2042083 35.0181435,41.6288839 34.7560462,41.0266287 C34.6983362,40.81012 34.728787,40.5795644 34.8407285,40.3854625 C34.7711017,40.244272 34.7104928,40.0988108 34.6592663,39.9499534 C37.6385444,38.1853433 39.8646768,35.3865308 40.913661,32.0865946 L41.3733651,32.1712769 C41.5373167,32.0187376 41.75436,31.9362611 41.9782388,31.9414249 C42.6238627,32.0652909 43.2559074,32.251663 43.865445,32.4979087 C44.1806138,32.641305 44.5037431,32.7665176 44.833243,32.8729305 L45.1114849,32.8729305 L45.1114849,32.8729305 C45.5015852,32.9928638 45.9259987,32.884562 46.2109336,32.5923731 C46.4958685,32.3001843 46.5934689,31.8731827 46.4637686,31.4862201 C46.3340683,31.0992575 45.998851,30.8173258 45.5953839,30.7558723 L45.2808495,30.6832875 C44.9359677,30.6351182 44.5885987,30.606844 44.2404667,30.5986051 C43.6007581,30.5741536 42.9648099,30.4890905 42.3411631,30.3445582 C42.142778,30.2346278 41.979292,30.0711417 41.8693615,29.8727566 L41.4338524,29.7396844 C41.9024301,26.3181582 41.0973293,22.8437392 39.1716246,19.9770219 L39.5587438,19.6261952 C39.5437785,19.4015318 39.6176306,19.1799754 39.7644009,19.0092239 C40.2624809,18.5787677 40.8013526,18.197911 41.3733651,17.8720613 C41.6814404,17.7158687 41.9803327,17.5421881 42.2685782,17.3518698 L42.5105277,17.1583102 C42.8578048,16.9283748 43.0434764,16.5204683 42.9888042,16.1075729 C42.934132,15.6946774 42.6486972,15.3491509 42.2535447,15.2175218 C41.8583922,15.0858927 41.4227708,15.1912283 41.1314156,15.4888587 L40.8894661,15.6824183 C40.6371158,15.922553 40.3988042,16.1770212 40.175715,16.4445592 C39.7311217,16.9263183 39.2409003,17.3638713 38.7119205,17.7510865 C38.5050378,17.835107 38.2789372,17.8602293 38.0586569,17.8236714 L37.6473427,18.1140108 C35.2723869,15.6237589 32.074065,14.0804826 28.6468212,13.7710172 C28.6468212,13.6258475 28.6468212,13.359703 28.6468212,13.2871182 C28.4633255,13.1583846 28.3374235,12.9630194 28.2959944,12.7427318 C28.2721018,12.0830656 28.3126186,11.4226418 28.4169692,10.7708433 C28.4850036,10.4311431 28.5334733,10.0878161 28.5621389,9.74255795 C28.5621389,9.65787562 28.5621389,9.52480339 28.5621389,9.44012107 C28.5652639,8.81652275 28.0938472,8.29272634 27.4733661,8.23037355 L27.4975611,8.24247103 Z M26.1426438,16.7107036 L25.816012,22.396517 L25.816012,22.396517 C25.801863,22.7477053 25.596092,23.0627875 25.2802232,23.2169314 C24.9643545,23.3710754 24.5893673,23.3394031 24.3038276,23.134463 L24.3038276,23.134463 L19.6462997,19.8318522 C21.1326258,18.3730465 22.9973126,17.358992 25.0296761,16.9042632 C25.3961981,16.8010794 25.7676513,16.7162912 26.1426438,16.6502163 L26.1426438,16.7107036 Z M28.8645757,16.7107036 C31.3149341,17.0147802 33.5974689,18.1156676 35.3609199,19.8439497 L30.7275869,23.134463 L30.7275869,23.134463 C30.4436055,23.3451806 30.0664799,23.3818674 29.7472101,23.2298341 C29.4279402,23.0778008 29.218714,22.7618989 29.203305,22.4086144 L29.203305,22.4086144 L28.8645757,16.7107036 Z M17.9768481,21.9610079 L22.2351594,25.7717125 L22.2351594,25.7717125 C22.4818891,26.0171227 22.5757224,26.3772483 22.4801203,26.7118555 C22.3845183,27.0464627 22.1145935,27.3026574 21.7754553,27.3806767 L21.7754553,27.3806767 L16.319494,28.9533485 C16.0483586,26.4877191 16.6059429,24.0019999 17.9042632,21.888423 L17.9768481,21.9610079 Z M37.1150538,21.9610079 C38.3876914,24.0585039 38.9478535,26.5113347 38.7119205,28.9533485 L33.2317643,27.3685793 L33.2317643,27.3685793 C32.8907748,27.2761087 32.6286184,27.0030588 32.5500995,26.658589 C32.4715807,26.3141192 32.5895102,25.954432 32.8567425,25.7233226 L32.8567425,25.7233226 L37.0908589,21.9368129 L37.1150538,21.9610079 Z M26.6144454,26.0015646 L28.3564818,26.0015646 L29.4452546,27.3564818 L29.0339404,29.0501283 L27.4733661,29.8001718 L25.9006943,29.0501283 L25.5135751,27.3564818 L26.6144454,26.0015646 Z M32.2034789,30.6348976 L32.4333309,30.6348976 L38.0828518,31.5905981 C37.247652,33.9323793 35.6555622,35.9288769 33.5583961,37.2643139 L31.3687531,31.9656198 L31.3687531,31.9656198 C31.2454442,31.6775015 31.2712307,31.347235 31.4377641,31.081747 C31.6042974,30.816259 31.8904132,30.64929 32.2034789,30.6348976 L32.2034789,30.6348976 Z M22.7190584,30.6348976 C23.036453,30.6415531 23.329826,30.8053822 23.5019872,31.0721109 C23.6741484,31.3388395 23.7026235,31.6736482 23.5779791,31.9656198 L23.5779791,31.9656198 L21.412531,37.2038266 C19.3586422,35.8917717 17.7875115,33.9469666 16.9364652,31.6631829 L22.5375962,30.7074824 L22.7311558,30.7074824 L22.7190584,30.6348976 Z M27.4491712,32.9334178 C27.8117786,32.9261979 28.1479886,33.1223204 28.3201894,33.4415118 L28.3201894,33.4415118 L31.0784137,38.4256716 C30.7167229,38.5447553 30.3493081,38.6456934 29.9775435,38.7281084 C27.9474841,39.1937359 25.8278639,39.0848226 23.856221,38.4135741 L26.6144454,33.4657067 L26.6144454,33.4657067 C26.780565,33.1523228 27.1065795,32.9567142 27.4612686,32.9576128 L27.4491712,32.9334178 Z" id="path3059" fill="#FFFFFF"></path>
            </g>
        </g>
    </g>
</svg>